<mxfile host="Electron" agent="Mozilla/5.0 (Windows NT 10.0; Win64; x64) AppleWebKit/537.36 (KHTML, like Gecko) draw.io/26.0.9 Chrome/128.0.6613.186 Electron/32.2.5 Safari/537.36" version="26.0.9">
  <diagram name="Page-1" id="TmHSQtWWw0lw55ef82QC">
    <mxGraphModel dx="650" dy="420" grid="1" gridSize="10" guides="1" tooltips="1" connect="1" arrows="1" fold="1" page="1" pageScale="1" pageWidth="570" pageHeight="940" math="0" shadow="0">
      <root>
        <mxCell id="0" />
        <mxCell id="1" parent="0" />
        <mxCell id="9MctJznjph5ZW9yr7NKP-2" value="" style="shape=flexArrow;endArrow=classic;html=1;rounded=0;width=6;entryX=0;entryY=0.5;entryDx=0;entryDy=0;" edge="1" parent="1" target="9MctJznjph5ZW9yr7NKP-35">
          <mxGeometry width="50" height="50" relative="1" as="geometry">
            <mxPoint x="140" y="198" as="sourcePoint" />
            <mxPoint x="200.00000000000193" y="240" as="targetPoint" />
          </mxGeometry>
        </mxCell>
        <mxCell id="9MctJznjph5ZW9yr7NKP-4" value="e&lt;sub&gt;1&lt;/sub&gt;" style="ellipse;shape=doubleEllipse;html=1;dashed=0;whiteSpace=wrap;aspect=fixed;fillColor=none;" vertex="1" parent="1">
          <mxGeometry x="299" y="178" width="40" height="40" as="geometry" />
        </mxCell>
        <mxCell id="9MctJznjph5ZW9yr7NKP-5" value="" style="endArrow=classic;html=1;rounded=0;exitX=1;exitY=0.5;exitDx=0;exitDy=0;entryX=0;entryY=0.5;entryDx=0;entryDy=0;" edge="1" parent="1" source="9MctJznjph5ZW9yr7NKP-35" target="9MctJznjph5ZW9yr7NKP-4">
          <mxGeometry width="50" height="50" relative="1" as="geometry">
            <mxPoint x="239.99999999999807" y="240" as="sourcePoint" />
            <mxPoint x="360" y="240" as="targetPoint" />
          </mxGeometry>
        </mxCell>
        <mxCell id="9MctJznjph5ZW9yr7NKP-6" value="&lt;span style=&quot;font-size: 10px;&quot;&gt;0&lt;/span&gt;" style="text;html=1;align=center;verticalAlign=middle;whiteSpace=wrap;rounded=0;" vertex="1" parent="1">
          <mxGeometry x="263" y="182" width="10" height="10" as="geometry" />
        </mxCell>
        <mxCell id="9MctJznjph5ZW9yr7NKP-7" value="e&lt;sub&gt;2&lt;/sub&gt;" style="ellipse;shape=doubleEllipse;html=1;dashed=0;whiteSpace=wrap;aspect=fixed;fillColor=none;" vertex="1" parent="1">
          <mxGeometry x="402" y="178" width="40" height="40" as="geometry" />
        </mxCell>
        <mxCell id="9MctJznjph5ZW9yr7NKP-10" value="" style="endArrow=classic;html=1;rounded=0;exitX=0.929;exitY=0.226;exitDx=0;exitDy=0;entryX=0.068;entryY=0.24;entryDx=0;entryDy=0;curved=1;exitPerimeter=0;entryPerimeter=0;" edge="1" parent="1" source="9MctJznjph5ZW9yr7NKP-4" target="9MctJznjph5ZW9yr7NKP-7">
          <mxGeometry width="50" height="50" relative="1" as="geometry">
            <mxPoint x="380" y="280" as="sourcePoint" />
            <mxPoint x="430" y="230" as="targetPoint" />
            <Array as="points">
              <mxPoint x="370" y="170" />
            </Array>
          </mxGeometry>
        </mxCell>
        <mxCell id="9MctJznjph5ZW9yr7NKP-13" value="&lt;span style=&quot;font-size: 10px;&quot;&gt;1&lt;/span&gt;" style="text;html=1;align=center;verticalAlign=middle;whiteSpace=wrap;rounded=0;connectable=0;" vertex="1" parent="1">
          <mxGeometry x="366" y="166" width="10" height="7" as="geometry" />
        </mxCell>
        <mxCell id="9MctJznjph5ZW9yr7NKP-16" value="&lt;span style=&quot;font-size: 10px;&quot;&gt;0&lt;/span&gt;" style="text;html=1;align=center;verticalAlign=middle;whiteSpace=wrap;rounded=0;connectable=0;" vertex="1" parent="1">
          <mxGeometry x="365" y="207" width="10" height="10" as="geometry" />
        </mxCell>
        <mxCell id="9MctJznjph5ZW9yr7NKP-18" value="&lt;span style=&quot;font-size: 10px;&quot;&gt;1&lt;/span&gt;" style="text;html=1;align=center;verticalAlign=middle;whiteSpace=wrap;rounded=0;connectable=0;" vertex="1" parent="1">
          <mxGeometry x="416" y="153" width="10" height="10" as="geometry" />
        </mxCell>
        <mxCell id="9MctJznjph5ZW9yr7NKP-19" value="" style="endArrow=classic;html=1;rounded=0;exitX=0.5;exitY=1;exitDx=0;exitDy=0;entryX=0;entryY=0;entryDx=0;entryDy=0;" edge="1" parent="1" source="9MctJznjph5ZW9yr7NKP-35" target="9MctJznjph5ZW9yr7NKP-25">
          <mxGeometry width="50" height="50" relative="1" as="geometry">
            <mxPoint x="220" y="260" as="sourcePoint" />
            <mxPoint x="255.85786437626905" y="315.857864376269" as="targetPoint" />
          </mxGeometry>
        </mxCell>
        <mxCell id="9MctJznjph5ZW9yr7NKP-20" value="&lt;span style=&quot;font-size: 10px;&quot;&gt;1&lt;/span&gt;" style="text;html=1;align=center;verticalAlign=middle;whiteSpace=wrap;rounded=0;" vertex="1" parent="1">
          <mxGeometry x="231" y="284" width="10" height="10" as="geometry" />
        </mxCell>
        <mxCell id="9MctJznjph5ZW9yr7NKP-25" value="e&lt;sub&gt;3&lt;/sub&gt;" style="ellipse;whiteSpace=wrap;html=1;aspect=fixed;fillColor=none;" vertex="1" parent="1">
          <mxGeometry x="231" y="340" width="40" height="40" as="geometry" />
        </mxCell>
        <mxCell id="9MctJznjph5ZW9yr7NKP-26" value="e&lt;sub&gt;4&lt;/sub&gt;" style="ellipse;whiteSpace=wrap;html=1;aspect=fixed;fillColor=none;" vertex="1" parent="1">
          <mxGeometry x="326" y="340" width="40" height="40" as="geometry" />
        </mxCell>
        <mxCell id="9MctJznjph5ZW9yr7NKP-27" value="" style="endArrow=classic;html=1;rounded=0;exitX=1;exitY=0.5;exitDx=0;exitDy=0;entryX=0;entryY=0.5;entryDx=0;entryDy=0;" edge="1" parent="1" source="9MctJznjph5ZW9yr7NKP-25" target="9MctJznjph5ZW9yr7NKP-26">
          <mxGeometry width="50" height="50" relative="1" as="geometry">
            <mxPoint x="310" y="310" as="sourcePoint" />
            <mxPoint x="360" y="260" as="targetPoint" />
          </mxGeometry>
        </mxCell>
        <mxCell id="9MctJznjph5ZW9yr7NKP-28" value="&lt;span style=&quot;font-size: 10px;&quot;&gt;0&lt;/span&gt;" style="text;html=1;align=center;verticalAlign=middle;whiteSpace=wrap;rounded=0;connectable=0;" vertex="1" parent="1">
          <mxGeometry x="299" y="330" width="10" height="10" as="geometry" />
        </mxCell>
        <mxCell id="9MctJznjph5ZW9yr7NKP-30" value="e&lt;sub&gt;5&lt;/sub&gt;" style="ellipse;shape=doubleEllipse;html=1;dashed=0;whiteSpace=wrap;aspect=fixed;fillColor=none;" vertex="1" parent="1">
          <mxGeometry x="420" y="340" width="40" height="40" as="geometry" />
        </mxCell>
        <mxCell id="9MctJznjph5ZW9yr7NKP-31" value="" style="endArrow=classic;html=1;rounded=0;entryX=0.036;entryY=0.336;entryDx=0;entryDy=0;entryPerimeter=0;exitX=0.974;exitY=0.339;exitDx=0;exitDy=0;exitPerimeter=0;curved=1;" edge="1" parent="1" source="9MctJznjph5ZW9yr7NKP-26" target="9MctJznjph5ZW9yr7NKP-30">
          <mxGeometry width="50" height="50" relative="1" as="geometry">
            <mxPoint x="380" y="320" as="sourcePoint" />
            <mxPoint x="420" y="323" as="targetPoint" />
            <Array as="points">
              <mxPoint x="390" y="330" />
            </Array>
          </mxGeometry>
        </mxCell>
        <mxCell id="9MctJznjph5ZW9yr7NKP-32" value="&lt;span style=&quot;font-size: 10px;&quot;&gt;0&lt;/span&gt;" style="text;html=1;align=center;verticalAlign=middle;whiteSpace=wrap;rounded=0;connectable=0;" vertex="1" parent="1">
          <mxGeometry x="388" y="327" width="10" height="10" as="geometry" />
        </mxCell>
        <mxCell id="9MctJznjph5ZW9yr7NKP-33" value="" style="endArrow=classic;html=1;rounded=0;entryX=0.968;entryY=0.692;entryDx=0;entryDy=0;entryPerimeter=0;curved=1;exitX=0.027;exitY=0.651;exitDx=0;exitDy=0;exitPerimeter=0;" edge="1" parent="1" source="9MctJznjph5ZW9yr7NKP-30" target="9MctJznjph5ZW9yr7NKP-26">
          <mxGeometry width="50" height="50" relative="1" as="geometry">
            <mxPoint x="420" y="336" as="sourcePoint" />
            <mxPoint x="373" y="337" as="targetPoint" />
            <Array as="points">
              <mxPoint x="400" y="390" />
            </Array>
          </mxGeometry>
        </mxCell>
        <mxCell id="9MctJznjph5ZW9yr7NKP-34" value="&lt;span style=&quot;font-size: 10px;&quot;&gt;0&lt;/span&gt;" style="text;html=1;align=center;verticalAlign=middle;whiteSpace=wrap;rounded=0;connectable=0;" vertex="1" parent="1">
          <mxGeometry x="389" y="385" width="10" height="10" as="geometry" />
        </mxCell>
        <mxCell id="9MctJznjph5ZW9yr7NKP-35" value="e&lt;sub&gt;0&lt;/sub&gt;" style="shape=ellipse;html=1;dashed=0;whiteSpace=wrap;aspect=fixed;perimeter=ellipsePerimeter;fillColor=none;" vertex="1" parent="1">
          <mxGeometry x="195" y="178" width="40" height="40" as="geometry" />
        </mxCell>
        <mxCell id="9MctJznjph5ZW9yr7NKP-38" value="" style="endArrow=classic;html=1;rounded=0;exitX=1;exitY=0;exitDx=0;exitDy=0;entryX=0.23;entryY=0.923;entryDx=0;entryDy=0;entryPerimeter=0;" edge="1" parent="1" source="9MctJznjph5ZW9yr7NKP-25" target="9MctJznjph5ZW9yr7NKP-43">
          <mxGeometry width="50" height="50" relative="1" as="geometry">
            <mxPoint x="320" y="320" as="sourcePoint" />
            <mxPoint x="290.85786437626894" y="304.14213562373106" as="targetPoint" />
          </mxGeometry>
        </mxCell>
        <mxCell id="9MctJznjph5ZW9yr7NKP-39" value="&lt;span style=&quot;font-size: 10px;&quot;&gt;1&lt;/span&gt;" style="text;html=1;align=center;verticalAlign=middle;whiteSpace=wrap;rounded=0;" vertex="1" parent="1">
          <mxGeometry x="273" y="304" width="10" height="10" as="geometry" />
        </mxCell>
        <mxCell id="9MctJznjph5ZW9yr7NKP-40" value="" style="endArrow=classic;html=1;rounded=0;entryX=0.36;entryY=0.028;entryDx=0;entryDy=0;exitX=0.329;exitY=0.978;exitDx=0;exitDy=0;exitPerimeter=0;entryPerimeter=0;" edge="1" parent="1" source="9MctJznjph5ZW9yr7NKP-4" target="9MctJznjph5ZW9yr7NKP-43">
          <mxGeometry width="50" height="50" relative="1" as="geometry">
            <mxPoint x="310" y="250" as="sourcePoint" />
            <mxPoint x="305" y="270" as="targetPoint" />
          </mxGeometry>
        </mxCell>
        <mxCell id="9MctJznjph5ZW9yr7NKP-41" value="&lt;span style=&quot;font-size: 10px;&quot;&gt;0&lt;/span&gt;" style="text;html=1;align=center;verticalAlign=middle;whiteSpace=wrap;rounded=0;" vertex="1" parent="1">
          <mxGeometry x="298" y="230" width="10" height="10" as="geometry" />
        </mxCell>
        <mxCell id="9MctJznjph5ZW9yr7NKP-42" value="" style="endArrow=classic;html=1;rounded=0;exitX=0.236;exitY=0.079;exitDx=0;exitDy=0;exitPerimeter=0;curved=1;entryX=1;entryY=0;entryDx=0;entryDy=0;" edge="1" parent="1" source="9MctJznjph5ZW9yr7NKP-7" target="9MctJznjph5ZW9yr7NKP-7">
          <mxGeometry width="50" height="50" relative="1" as="geometry">
            <mxPoint x="410" y="220" as="sourcePoint" />
            <mxPoint x="440" y="200" as="targetPoint" />
            <Array as="points">
              <mxPoint x="420" y="150" />
            </Array>
          </mxGeometry>
        </mxCell>
        <mxCell id="9MctJznjph5ZW9yr7NKP-43" value="e&lt;sub&gt;6&lt;/sub&gt;" style="ellipse;shape=doubleEllipse;html=1;dashed=0;whiteSpace=wrap;aspect=fixed;fillColor=none;" vertex="1" parent="1">
          <mxGeometry x="295" y="254" width="40" height="40" as="geometry" />
        </mxCell>
        <mxCell id="9MctJznjph5ZW9yr7NKP-45" value="&lt;span style=&quot;font-size: 10px;&quot;&gt;0&lt;/span&gt;" style="text;html=1;align=center;verticalAlign=middle;whiteSpace=wrap;rounded=0;" vertex="1" parent="1">
          <mxGeometry x="269" y="267" width="10" height="10" as="geometry" />
        </mxCell>
        <mxCell id="9MctJznjph5ZW9yr7NKP-46" value="e&lt;sub&gt;7&lt;/sub&gt;" style="ellipse;shape=doubleEllipse;html=1;dashed=0;whiteSpace=wrap;aspect=fixed;fillColor=none;" vertex="1" parent="1">
          <mxGeometry x="380" y="254" width="40" height="40" as="geometry" />
        </mxCell>
        <mxCell id="9MctJznjph5ZW9yr7NKP-47" value="e&lt;span style=&quot;font-size: 10px;&quot;&gt;&lt;sub&gt;8&lt;/sub&gt;&lt;/span&gt;" style="ellipse;shape=doubleEllipse;html=1;dashed=0;whiteSpace=wrap;aspect=fixed;fillColor=none;" vertex="1" parent="1">
          <mxGeometry x="460" y="254" width="40" height="40" as="geometry" />
        </mxCell>
        <mxCell id="9MctJznjph5ZW9yr7NKP-48" value="" style="endArrow=classic;html=1;rounded=0;exitX=0;exitY=1;exitDx=0;exitDy=0;entryX=1;entryY=1;entryDx=0;entryDy=0;curved=1;" edge="1" parent="1" source="9MctJznjph5ZW9yr7NKP-7" target="9MctJznjph5ZW9yr7NKP-4">
          <mxGeometry width="50" height="50" relative="1" as="geometry">
            <mxPoint x="340" y="210" as="sourcePoint" />
            <mxPoint x="390" y="160" as="targetPoint" />
            <Array as="points">
              <mxPoint x="370" y="230" />
            </Array>
          </mxGeometry>
        </mxCell>
        <mxCell id="9MctJznjph5ZW9yr7NKP-50" value="" style="endArrow=classic;html=1;rounded=0;entryX=0.091;entryY=0.199;entryDx=0;entryDy=0;entryPerimeter=0;curved=1;exitX=0.023;exitY=0.648;exitDx=0;exitDy=0;exitPerimeter=0;" edge="1" parent="1" source="9MctJznjph5ZW9yr7NKP-43" target="9MctJznjph5ZW9yr7NKP-43">
          <mxGeometry width="50" height="50" relative="1" as="geometry">
            <mxPoint x="280" y="290" as="sourcePoint" />
            <mxPoint x="330" y="240" as="targetPoint" />
            <Array as="points">
              <mxPoint x="270" y="270" />
            </Array>
          </mxGeometry>
        </mxCell>
        <mxCell id="9MctJznjph5ZW9yr7NKP-51" value="" style="endArrow=classic;html=1;rounded=0;exitX=1;exitY=0.5;exitDx=0;exitDy=0;entryX=0;entryY=0.5;entryDx=0;entryDy=0;" edge="1" parent="1" source="9MctJznjph5ZW9yr7NKP-43" target="9MctJznjph5ZW9yr7NKP-46">
          <mxGeometry width="50" height="50" relative="1" as="geometry">
            <mxPoint x="340" y="300" as="sourcePoint" />
            <mxPoint x="390" y="250" as="targetPoint" />
          </mxGeometry>
        </mxCell>
        <mxCell id="9MctJznjph5ZW9yr7NKP-52" value="&lt;span style=&quot;font-size: 10px;&quot;&gt;1&lt;/span&gt;" style="text;html=1;align=center;verticalAlign=middle;whiteSpace=wrap;rounded=0;" vertex="1" parent="1">
          <mxGeometry x="352" y="260" width="10" height="10" as="geometry" />
        </mxCell>
        <mxCell id="9MctJznjph5ZW9yr7NKP-53" value="" style="endArrow=classic;html=1;rounded=0;exitX=1;exitY=0;exitDx=0;exitDy=0;strokeColor=default;curved=1;entryX=0.532;entryY=0.003;entryDx=0;entryDy=0;entryPerimeter=0;" edge="1" parent="1" source="9MctJznjph5ZW9yr7NKP-46" target="9MctJznjph5ZW9yr7NKP-46">
          <mxGeometry width="50" height="50" relative="1" as="geometry">
            <mxPoint x="410" y="290" as="sourcePoint" />
            <mxPoint x="460" y="240" as="targetPoint" />
            <Array as="points">
              <mxPoint x="420" y="240" />
            </Array>
          </mxGeometry>
        </mxCell>
        <mxCell id="9MctJznjph5ZW9yr7NKP-54" value="&lt;span style=&quot;font-size: 10px;&quot;&gt;1&lt;/span&gt;" style="text;html=1;align=center;verticalAlign=middle;whiteSpace=wrap;rounded=0;" vertex="1" parent="1">
          <mxGeometry x="412" y="234" width="10" height="10" as="geometry" />
        </mxCell>
        <mxCell id="9MctJznjph5ZW9yr7NKP-55" value="" style="endArrow=classic;html=1;rounded=0;entryX=0;entryY=0.5;entryDx=0;entryDy=0;exitX=1;exitY=0.5;exitDx=0;exitDy=0;" edge="1" parent="1" source="9MctJznjph5ZW9yr7NKP-46" target="9MctJznjph5ZW9yr7NKP-47">
          <mxGeometry width="50" height="50" relative="1" as="geometry">
            <mxPoint x="370" y="290" as="sourcePoint" />
            <mxPoint x="420" y="240" as="targetPoint" />
          </mxGeometry>
        </mxCell>
        <mxCell id="9MctJznjph5ZW9yr7NKP-56" value="&lt;span style=&quot;font-size: 10px;&quot;&gt;0&lt;/span&gt;" style="text;html=1;align=center;verticalAlign=middle;whiteSpace=wrap;rounded=0;connectable=0;" vertex="1" parent="1">
          <mxGeometry x="433" y="260" width="10" height="10" as="geometry" />
        </mxCell>
        <mxCell id="9MctJznjph5ZW9yr7NKP-57" value="e&lt;span style=&quot;font-size: 10px;&quot;&gt;&lt;sub&gt;9&lt;/sub&gt;&lt;/span&gt;" style="ellipse;shape=doubleEllipse;html=1;dashed=0;whiteSpace=wrap;aspect=fixed;fillColor=none;" vertex="1" parent="1">
          <mxGeometry x="540" y="254" width="40" height="40" as="geometry" />
        </mxCell>
        <mxCell id="9MctJznjph5ZW9yr7NKP-58" value="" style="endArrow=classic;html=1;rounded=0;entryX=0;entryY=0.5;entryDx=0;entryDy=0;exitX=1;exitY=0.5;exitDx=0;exitDy=0;" edge="1" parent="1" source="9MctJznjph5ZW9yr7NKP-47" target="9MctJznjph5ZW9yr7NKP-57">
          <mxGeometry width="50" height="50" relative="1" as="geometry">
            <mxPoint x="440" y="320" as="sourcePoint" />
            <mxPoint x="490" y="270" as="targetPoint" />
          </mxGeometry>
        </mxCell>
        <mxCell id="9MctJznjph5ZW9yr7NKP-59" value="&lt;span style=&quot;font-size: 10px;&quot;&gt;0&lt;/span&gt;" style="text;html=1;align=center;verticalAlign=middle;whiteSpace=wrap;rounded=0;connectable=0;" vertex="1" parent="1">
          <mxGeometry x="514" y="259" width="10" height="10" as="geometry" />
        </mxCell>
        <mxCell id="9MctJznjph5ZW9yr7NKP-60" value="" style="endArrow=classic;html=1;rounded=0;exitX=0;exitY=1;exitDx=0;exitDy=0;entryX=1;entryY=1;entryDx=0;entryDy=0;curved=1;" edge="1" parent="1" source="9MctJznjph5ZW9yr7NKP-57" target="9MctJznjph5ZW9yr7NKP-43">
          <mxGeometry width="50" height="50" relative="1" as="geometry">
            <mxPoint x="410" y="310" as="sourcePoint" />
            <mxPoint x="460" y="260" as="targetPoint" />
            <Array as="points">
              <mxPoint x="440" y="330" />
            </Array>
          </mxGeometry>
        </mxCell>
        <mxCell id="9MctJznjph5ZW9yr7NKP-61" value="&lt;span style=&quot;font-size: 10px;&quot;&gt;1 | 0&lt;/span&gt;" style="text;html=1;align=center;verticalAlign=middle;whiteSpace=wrap;rounded=0;" vertex="1" parent="1">
          <mxGeometry x="423" y="299" width="27" height="6" as="geometry" />
        </mxCell>
        <mxCell id="9MctJznjph5ZW9yr7NKP-62" value="&lt;b&gt;X&lt;/b&gt;" style="text;html=1;align=center;verticalAlign=middle;whiteSpace=wrap;rounded=0;" vertex="1" parent="1">
          <mxGeometry x="444" y="180" width="30" height="30" as="geometry" />
        </mxCell>
        <mxCell id="9MctJznjph5ZW9yr7NKP-63" value="&lt;b&gt;Y&lt;/b&gt;" style="text;html=1;align=center;verticalAlign=middle;whiteSpace=wrap;rounded=0;" vertex="1" parent="1">
          <mxGeometry x="465" y="345" width="30" height="30" as="geometry" />
        </mxCell>
        <mxCell id="9MctJznjph5ZW9yr7NKP-64" value="&lt;b&gt;Z&lt;/b&gt;" style="text;html=1;align=center;verticalAlign=middle;whiteSpace=wrap;rounded=0;" vertex="1" parent="1">
          <mxGeometry x="600" y="259" width="30" height="30" as="geometry" />
        </mxCell>
      </root>
    </mxGraphModel>
  </diagram>
</mxfile>
